<mxfile host="app.diagrams.net" modified="2024-06-18T02:25:15.594Z" agent="Mozilla/5.0 (Windows NT 10.0; Win64; x64) AppleWebKit/537.36 (KHTML, like Gecko) Chrome/126.0.0.0 Safari/537.36 Edg/126.0.0.0" version="24.5.5" etag="qCeE1cPcuObf0VQCmdEM" type="github">
  <diagram name="第 1 页" id="-ykmJdj0VzzexO0A8acG">
    <mxGraphModel>
      <root>
        <mxCell id="0" />
        <mxCell id="1" parent="0" />
      </root>
    </mxGraphModel>
  </diagram>
</mxfile>
